<svg class="gfp24_icons">
  <defs>
    <symbol id="icon-facebook" viewBox="0 0 264 448">
      <path d="M239.75 3v66h-39.25q-21.5 0-29 9t-7.5 27v47.25h73.25l-9.75 74h-63.5v189.75h-76.5v-189.75h-63.75v-74h63.75v-54.5q0-46.5 26-72.125t69.25-25.625q36.75 0 57 3z"></path>
    </symbol>
    <symbol id="icon-twitter" viewBox="0 0 416 448">
      <path d="M405 102q-16.75 24.5-40.5 41.75 0.25 3.5 0.25 10.5 0 32.5-9.5 64.875t-28.875 62.125-46.125 52.625-64.5 36.5-80.75 13.625q-67.75 0-124-36.25 8.75 1 19.5 1 56.25 0 100.25-34.5-26.25-0.5-47-16.125t-28.5-39.875q8.25 1.25 15.25 1.25 10.75 0 21.25-2.75-28-5.75-46.375-27.875t-18.375-51.375v-1q17 9.5 36.5 10.25-16.5-11-26.25-28.75t-9.75-38.5q0-22 11-40.75 30.25 37.25 73.625 59.625t92.875 24.875q-2-9.5-2-18.5 0-33.5 23.625-57.125t57.125-23.625q35 0 59 25.5 27.25-5.25 51.25-19.5-9.25 28.75-35.5 44.5 23.25-2.5 46.5-12.5z"></path>
    </symbol>
    <symbol id="icon-instagram" viewBox="0 0 384 448">
      <path d="M256 224q0-26.5-18.75-45.25t-45.25-18.75-45.25 18.75-18.75 45.25 18.75 45.25 45.25 18.75 45.25-18.75 18.75-45.25zM290.5 224q0 41-28.75 69.75t-69.75 28.75-69.75-28.75-28.75-69.75 28.75-69.75 69.75-28.75 69.75 28.75 28.75 69.75zM317.5 121.5q0 9.5-6.75 16.25t-16.25 6.75-16.25-6.75-6.75-16.25 6.75-16.25 16.25-6.75 16.25 6.75 6.75 16.25zM192 66.5q-1.75 0-19.125-0.125t-26.375 0-24.125 0.75-25.75 2.5-17.875 4.625q-12.5 5-22 14.5t-14.5 22q-2.75 7.25-4.625 17.875t-2.5 25.75-0.75 24.125 0 26.375 0.125 19.125-0.125 19.125 0 26.375 0.75 24.125 2.5 25.75 4.625 17.875q5 12.5 14.5 22t22 14.5q7.25 2.75 17.875 4.625t25.75 2.5 24.125 0.75 26.375 0 19.125-0.125 19.125 0.125 26.375 0 24.125-0.75 25.75-2.5 17.875-4.625q12.5-5 22-14.5t14.5-22q2.75-7.25 4.625-17.875t2.5-25.75 0.75-24.125 0-26.375-0.125-19.125 0.125-19.125 0-26.375-0.75-24.125-2.5-25.75-4.625-17.875q-5-12.5-14.5-22t-22-14.5q-7.25-2.75-17.875-4.625t-25.75-2.5-24.125-0.75-26.375 0-19.125 0.125zM384 224q0 57.25-1.25 79.25-2.5 52-31 80.5t-80.5 31q-22 1.25-79.25 1.25t-79.25-1.25q-52-2.5-80.5-31t-31-80.5q-1.25-22-1.25-79.25t1.25-79.25q2.5-52 31-80.5t80.5-31q22-1.25 79.25-1.25t79.25 1.25q52 2.5 80.5 31t31 80.5q1.25 22 1.25 79.25z"></path>
    </symbol>
    <symbol id="icon-marker" viewBox="0 0 53 76">
      <path d="M26,0C11.6,0,0,9.7,0,30.3s25.2,45.6,26,45.6c0.8,0,26-24.9,26-45.6S40.4,0,26,0z M26,45c-9.9,0-18-8.1-18-18
    		S16.1,9,26,9s18,8.1,18,18S35.9,45,26,45z"/>
    </symbol>
    <symbol id="icon-arrow-top" viewBox="0 0 36.09 22.3">
      <polyline points="0.38 21.98 18.04 0.78 35.7 21.98"/>
    </symbol>
    <symbol id="icon-plus" viewBox="0 0 768 768">
      <path d="M384 64q13.25 0 22.625 9.375t9.375 22.625v256h256q13.25 0 22.625 9.375t9.375 22.625-9.375 22.625-22.625 9.375h-256v256q0 13.25-9.375 22.625t-22.625 9.375-22.625-9.375-9.375-22.625v-256h-256q-13.25 0-22.625-9.375t-9.375-22.625 9.375-22.625 22.625-9.375h256v-256q0-13.25 9.375-22.625t22.625-9.375z"></path>
    </symbol>
  </defs>
</svg>
