<svg id="Calque_1" xmlns="http://www.w3.org/2000/svg" viewBox="0 0 303.8 494.4"><style>.st0{fill:none}.st1{fill:url(#SVGID_1_)}.st2{fill:url(#SVGID_2_)}.st3{fill:url(#SVGID_3_)}.st4{fill:#fff}</style><path class="st0" d="M0 0h303.8v494.4H0z"/><linearGradient id="SVGID_1_" gradientUnits="userSpaceOnUse" x1="1357.198" y1="-1629.663" x2="1474.885" y2="-1708.121" gradientTransform="translate(-1272.303 1919.044)"><stop offset="0" stop-color="#313682"/><stop offset=".215" stop-color="#2d61a1"/><stop offset=".412" stop-color="#2685c2"/><stop offset=".505" stop-color="#1b96d3"/><stop offset="1" stop-color="#76af42"/></linearGradient><path class="st1" d="M83.3 277.2c-3.6 5.6 15.5 20.6 17 20.6 11-18 27-34.4 44.6-45.5 20.8-13.1 44.8-22.6 69.6-23.9.1 0-7.9-18.2-15.2-18.2-24.9 1.3-48.5 11-69.6 23.9-17.7 11-34.5 24.4-46.4 43.1.1 0 0 0 0 0z"/><linearGradient id="SVGID_2_" gradientUnits="userSpaceOnUse" x1="1417.176" y1="-1852.524" x2="1467.21" y2="-1625.257" gradientTransform="translate(-1272.303 1919.044)"><stop offset="0" stop-color="#d91f26"/><stop offset=".092" stop-color="#d91f2e"/><stop offset=".281" stop-color="#da1d45"/><stop offset=".546" stop-color="#db1865"/><stop offset=".672" stop-color="#db1375"/><stop offset="1" stop-color="#ffc40c"/></linearGradient><path class="st2" d="M192.5 303.9c-48.7-29.8-54.5-199.3-53.3-234.7 0-5.6 20.1-8.8 20.2-5.9.5 29.8.9 176.6 62.9 236.3-.1 0-28.3 5.2-29.8 4.3z"/><linearGradient id="SVGID_3_" gradientUnits="userSpaceOnUse" x1="1369.241" y1="-1620.363" x2="1385.083" y2="-1773.187" gradientTransform="translate(-1272.303 1919.044)"><stop offset="0" stop-color="#91ccec"/><stop offset=".498" stop-color="#1b96d3"/><stop offset=".999" stop-color="#293881"/></linearGradient><path class="st3" d="M124.4 147.6c-4.7-6.1-11.3-11.9-23-11-6.6.5-12.3 5.3-16.4 10.1-3.6 4.2 15.2 18.2 15.2 18.2 3.6-4.5 8-8.1 13.7-9.7 1.2-.3 2.5-.5 3.8-.4 1.9 8.5 1.4 17.8.8 26.3-.7 10-2.6 19.8-5.1 29.5-6 23.3-17 47.1-30.1 66.7-3.7 5.8 15 20.6 17 20.6 47.1-70 36.7-133.7 24.1-150.3z"/><path class="st4" d="M80.6 340c0 5.8-4 9-10.4 9h-2.6v7.4c-.9.2-1.8.2-2.7.2-.9 0-1.8 0-2.8-.2v-23.9c2.2-.5 5-.8 7.8-.8 7.8 0 10.7 3.3 10.7 8.3zm-5.6.1c0-2.2-1.5-3.7-4.8-3.7-.9 0-1.7 0-2.5.1v7.6h2.6c3.4.1 4.7-1.7 4.7-4zm27.6 16c-1.1.3-2.3.4-3.5.4-.7 0-1.4-.1-2-.2l-1.7-4.8h-8.7l-1.7 4.8c-.8.1-1.7.1-2.5.1-1.1 0-2.1-.1-2.9-.4l8.8-23.8c.9-.2 1.9-.2 2.8-.2 1 0 1.8 0 2.7.2l8.7 23.9zm-8.9-9.1l-2-5.5-.7-2.3-.7 2.3-2 5.5h5.4zm30.7 9.1c-1.2.3-3 .4-4.6.4h-1.4l-4.8-8.4h-3v8.3c-.9.2-1.8.2-2.7.2-.9 0-1.8 0-2.8-.2v-23.7c2.3-.5 5.3-.8 7.9-.8 7.1 0 10.1 3 10.1 7.7 0 3.5-1.7 5.9-4.2 7.2l5.5 9.3zm-13.8-12.7h2.9c2.9 0 4-1.6 4-3.5 0-2.1-1.3-3.3-4-3.3-1 0-1.9 0-2.9.1v6.7zm16.8 13v-24c.9-.2 1.8-.2 2.7-.2.9 0 1.8 0 2.8.2v24c-.9.1-1.8.2-2.7.2-1 0-1.9-.1-2.8-.2zm8.8-2.4c.2-1.9 1.2-3.6 2.5-4.5 1.5 1.3 4 2.3 6.8 2.3 2.6 0 3.7-.9 3.7-2.2 0-1.2-.6-1.9-4.7-3-4-1-7.5-2.5-7.5-7.4 0-4.6 3.6-7.6 9-7.6 4.1 0 6.8 1.3 8.2 2.5-.1 1.7-1 3.6-2.5 4.5-1.4-1-3.4-1.9-6-1.9-2.2 0-3.3.8-3.3 1.9 0 1.2.5 1.7 4.7 2.8 4.4 1.1 7.4 3 7.5 7.3.1 5.2-3.5 8.1-9.1 8.1-4.9.2-7.8-1.4-9.3-2.8zm43.5.3c0 1-.2 2.1-.4 2.6h-17.1c-.1-.5-.3-1.2-.3-1.9 0-1.3.5-2.6 1.6-3.8 8.3-8.1 9.3-9.5 9.3-11.4 0-1.7-1-2.8-2.8-2.8-2.1 0-3.6 1.2-4.9 2.5-1.9-.6-2.9-1.8-3.6-3.5 1.6-2.5 4.6-4.4 8.6-4.4 4.7 0 8.3 2.9 8.3 8.1 0 3.9-3.1 7.5-7.8 11.5l-.9.7 1.1-.1h8.4c.3.7.5 1.7.5 2.5zm2.5-10c0-7.4 3.5-12.7 10.2-12.7 6.9 0 10.2 5.6 10.2 12.7 0 7.2-3.5 12.6-10.2 12.6-6.8.1-10.2-5.3-10.2-12.6zm14.8 0c0-4.5-1.2-7.6-4.6-7.6-3.4 0-4.6 3.1-4.6 7.6 0 4.6 1.2 7.8 4.6 7.8 3.4 0 4.6-3.1 4.6-7.8zm25 10c0 1-.2 2.1-.4 2.6h-17.1c-.1-.5-.3-1.2-.3-1.9 0-1.3.5-2.6 1.6-3.8 8.3-8.1 9.3-9.5 9.3-11.4 0-1.7-1-2.8-2.8-2.8-2.1 0-3.6 1.2-4.9 2.5-1.9-.6-2.9-1.8-3.6-3.5 1.6-2.5 4.6-4.4 8.6-4.4 4.7 0 8.3 2.9 8.3 8.1 0 3.9-3.1 7.5-7.8 11.5l-.9.7 1.1-.1h8.4c.3.7.5 1.7.5 2.5zm20.6-1.8h-2.8v4.3c-.8.1-1.6.2-2.4.2-.9 0-1.7-.1-2.7-.2v-4.3h-10.1c-1.2-1.9-1.1-3.8 0-6.6l5.9-14.1c2 .1 3.8.7 5.2 1.7l-5.1 12.6c-.3.6-.4 1-.4 1.5h4.6v-5.8c.9-.1 1.8-.2 2.7-.2.8 0 1.6.1 2.4.2v5.8h2.9c.1.8.2 1.6.2 2.4-.1.8-.2 1.6-.4 2.5z"/></svg>