<svg xmlns="http://www.w3.org/2000/svg" viewBox="0 0 112.8 79.7"><path d="M51 24.9c0 2.2-1.5 3.4-3.9 3.4h-1v2.8c-.3.1-.7.1-1 .1-.3 0-.7 0-1.1-.1V22c.8-.2 1.9-.3 3-.3 2.9 0 4 1.3 4 3.2zm-2.1.1c0-.9-.6-1.4-1.8-1.4h-1v2.9h1c1.3 0 1.8-.7 1.8-1.5zm10.5 6c-.4.1-.9.2-1.3.2-.3 0-.5 0-.8-.1l-.6-1.8h-3.3l-.6 1.8c-.3 0-.6.1-1 .1s-.8 0-1.1-.2l3.4-9.1c.3-.1.7-.1 1.1-.1.4 0 .7 0 1 .1l3.2 9.1zM56 27.6l-.8-2.1-.3-.9-.3.9-.8 2.1H56zM67.7 31c-.5.1-1.1.2-1.8.2h-.5L63.5 28h-1.1v3.2c-.3.1-.7.1-1 .1-.3 0-.7 0-1.1-.1v-9c.9-.2 2-.3 3-.3 2.7 0 3.8 1.2 3.8 2.9 0 1.3-.6 2.2-1.6 2.8l2.2 3.4zm-5.3-4.8h1.1c1.1 0 1.5-.6 1.5-1.3 0-.8-.5-1.3-1.5-1.3h-1.1v2.6zm6.4 4.9V22c.3-.1.7-.1 1-.1.3 0 .7 0 1.1.1v9.1c-.3.1-.7.1-1 .1-.4 0-.7 0-1.1-.1zm3.4-.9c.1-.7.4-1.4 1-1.7.6.5 1.5.9 2.6.9 1 0 1.4-.3 1.4-.8s-.2-.7-1.8-1.2c-1.5-.4-2.8-1-2.9-2.8 0-1.8 1.4-2.9 3.4-2.9 1.6 0 2.6.5 3.1.9 0 .7-.4 1.4-1 1.7-.5-.4-1.3-.7-2.3-.7-.8 0-1.3.3-1.3.7 0 .5.2.7 1.8 1.1 1.7.4 2.8 1.2 2.9 2.8 0 2-1.3 3.1-3.5 3.1-1.8.1-2.9-.5-3.4-1.1zm16.5.2c0 .4-.1.8-.1 1h-6.5c-.1-.2-.1-.5-.1-.7 0-.5.2-1 .6-1.4 3.2-3.1 3.5-3.6 3.5-4.3 0-.7-.4-1.1-1.1-1.1-.8 0-1.4.4-1.9.9-.7-.2-1.1-.7-1.4-1.3.6-1 1.8-1.7 3.3-1.7 1.8 0 3.2 1.1 3.2 3.1 0 1.5-1.2 2.9-3 4.4l-.4.3h3.6c.3.1.3.4.3.8zm1-3.8c0-2.8 1.3-4.8 3.9-4.8 2.6 0 3.9 2.1 3.9 4.8 0 2.8-1.3 4.8-3.9 4.8-2.6 0-3.9-2.1-3.9-4.8zm5.6 0c0-1.7-.4-2.9-1.7-2.9s-1.7 1.2-1.7 2.9c0 1.8.4 3 1.7 3s1.7-1.3 1.7-3zm9.5 3.8c0 .4-.1.8-.1 1h-6.5c-.1-.2-.1-.4-.1-.7 0-.5.2-1 .6-1.4 3.2-3.1 3.5-3.6 3.5-4.3 0-.7-.4-1.1-1.1-1.1-.8 0-1.4.4-1.9.9-.7-.2-1.1-.7-1.4-1.3.6-1 1.8-1.7 3.3-1.7 1.8 0 3.2 1.1 3.2 3.1 0 1.5-1.2 2.9-3 4.4l-.4.3h3.6c.3.1.3.4.3.8zm7.9-.7h-1.1v1.6c-.3.1-.6.1-.9.1-.3 0-.7 0-1-.1v-1.6h-3.9c-.4-.7-.4-1.5 0-2.5l2.2-5.4c.8.1 1.4.3 2 .6l-2 4.8c-.1.2-.2.4-.2.6h1.7v-2.2c.3-.1.7-.1 1-.1.3 0 .6 0 .9.1v2.2h1.1c.1.3.1.6.1.9.2.3.2.6.1 1z" fill="#fff"/><g fill="#4056c5"><path d="M.2 70.9c-1.2 1.9 5.1 6.8 5.6 6.8 3.6-5.9 8.9-11.3 14.7-15 6.9-4.3 14.8-7.5 22.9-7.9 0 0-2.6-6-5-6-8.2.4-16 3.6-22.9 7.9C9.6 60.3 4.1 64.8.2 70.9z"/><path d="M36.2 79.7C20.1 69.9 18.2 14 18.6 2.3c0-1.9 6.6-2.9 6.7-1.9.2 9.8.3 58.3 20.7 77.9 0 0-9.3 1.7-9.8 1.4zM13.7 28.2c-1.5-2-3.7-3.9-7.6-3.6-2.2.2-4.1 1.8-5.4 3.3-1.2 1.4 5 6 5 6 1.2-1.5 2.7-2.7 4.5-3.2.4-.1.8-.2 1.3-.1.6 2.8.5 5.9.3 8.7-.2 3.3-.9 6.5-1.7 9.7-2 7.7-5.6 15.5-9.9 22-1.2 1.9 4.9 6.8 5.6 6.8 15.5-23.2 12.1-44.1 7.9-49.6z"/></g></svg>