<svg xmlns="http://www.w3.org/2000/svg" viewBox="0 0 139 62.2"><path d="M53.6 28.8c0 3-2.1 4.7-5.4 4.7h-1.4v3.9c-.4.1-1 .1-1.4.1-.4 0-1 0-1.5-.1V24.8c1.1-.3 2.6-.4 4.1-.4 4.1 0 5.6 1.8 5.6 4.4zm-2.9.1c0-1.2-.8-1.9-2.5-1.9h-1.4v4h1.4c1.8 0 2.5-1 2.5-2.1zm14.5 8.3c-.6.1-1.2.3-1.8.3-.4 0-.7 0-1.1-.1l-.8-2.5h-4.6l-.8 2.5c-.4 0-.8.1-1.4.1-.6 0-1.1 0-1.5-.3l4.7-12.6c.4-.1 1-.1 1.5-.1.6 0 1 0 1.4.1l4.4 12.6zm-4.7-4.7l-1.1-2.9-.4-1.2-.4 1.2-1.1 2.9h3zm16.2 4.7c-.7.1-1.5.3-2.5.3h-.7l-2.6-4.4h-1.5v4.4c-.4.1-1 .1-1.4.1-.4 0-1 0-1.5-.1V25.1c1.2-.3 2.8-.4 4.1-.4 3.7 0 5.2 1.7 5.2 4 0 1.8-.8 3-2.2 3.9l3.1 4.6zm-7.3-6.6h1.5c1.5 0 2.1-.8 2.1-1.8 0-1.1-.7-1.8-2.1-1.8h-1.5v3.6zm8.8 6.8V24.8c.4-.1 1-.1 1.4-.1s1 0 1.5.1v12.6c-.4.1-1 .1-1.4.1-.5 0-.9 0-1.5-.1zm4.7-1.3c.1-1 .6-1.9 1.4-2.3.8.7 2.1 1.2 3.6 1.2 1.4 0 1.9-.4 1.9-1.1 0-.7-.3-1-2.5-1.7-2.1-.6-3.9-1.4-4-3.9 0-2.5 1.9-4 4.7-4 2.2 0 3.6.7 4.3 1.2 0 1-.6 1.9-1.4 2.3-.7-.6-1.8-1-3.2-1-1.1 0-1.8.4-1.8 1 0 .7.3 1 2.5 1.5 2.3.6 3.9 1.7 4 3.9 0 2.8-1.8 4.3-4.8 4.3-2.5.3-4-.6-4.7-1.4zm22.8.3c0 .6-.1 1.1-.1 1.4h-9c-.1-.3-.1-.7-.1-1 0-.7.3-1.4.8-1.9 4.4-4.3 4.8-5 4.8-5.9s-.6-1.5-1.5-1.5c-1.1 0-1.9.6-2.6 1.2-1-.3-1.5-1-1.9-1.8.8-1.4 2.5-2.3 4.6-2.3 2.5 0 4.4 1.5 4.4 4.3 0 2.1-1.7 4-4.1 6.1l-.6.4h5c.3 0 .3.4.3 1zm1.4-5.3c0-3.9 1.8-6.6 5.4-6.6 3.6 0 5.4 2.9 5.4 6.6 0 3.9-1.8 6.6-5.4 6.6-3.6.1-5.4-2.8-5.4-6.6zm7.7 0c0-2.3-.6-4-2.3-4-1.8 0-2.3 1.7-2.3 4 0 2.5.6 4.1 2.3 4.1 1.8.1 2.3-1.7 2.3-4.1zm13.2 5.3c0 .6-.1 1.1-.1 1.4h-9c-.1-.3-.1-.6-.1-1 0-.7.3-1.4.8-1.9 4.4-4.3 4.8-5 4.8-5.9 0-1-.6-1.5-1.5-1.5-1.1 0-1.9.6-2.6 1.2-1-.3-1.5-1-1.9-1.8.8-1.4 2.5-2.3 4.6-2.3 2.5 0 4.4 1.5 4.4 4.3 0 2.1-1.7 4-4.1 6.1l-.6.4h5c.3 0 .3.4.3 1zm10.9-1h-1.5v2.2c-.4.1-.8.1-1.2.1s-1 0-1.4-.1v-2.2h-5.4c-.6-1-.6-2.1 0-3.5l3-7.5c1.1.1 1.9.4 2.8.8l-2.8 6.6c-.1.3-.3.6-.3.8h2.3v-3c.4-.1 1-.1 1.4-.1s.8 0 1.2.1v3h1.5c.1.4.1.8.1 1.2.4.7.4 1.1.3 1.6z" fill="#fff"/><g fill="#4056c5"><path d="M.1 55.3c-.9 1.5 4 5.3 4.4 5.3C7.3 56 11.4 51.8 16 48.9c5.4-3.4 11.5-5.8 17.9-6.2 0 0-2-4.7-3.9-4.7-6.4.3-12.5 2.8-17.9 6.2C7.4 47 3.2 50.5.1 55.3z"/><path d="M28.2 62.1c-12.6-7.6-14-51.2-13.7-60.3 0-1.5 5.1-2.3 5.2-1.5.2 7.6.2 45.4 16.1 60.7 0 0-7.2 1.4-7.6 1.1zM10.6 22c-1.2-1.6-2.9-3-5.9-2.8-1.7.2-3.2 1.4-4.2 2.6-.9 1.1 3.9 4.7 3.9 4.7.9-1.2 2.1-2.1 3.5-2.5.3-.1.6-.2 1-.1.5 2.2.4 4.6.2 6.8-.2 2.6-.7 5.1-1.3 7.6-1.6 6-4.4 12.1-7.7 17.1-.9 1.5 3.8 5.3 4.4 5.3 12.1-18.1 9.4-34.4 6.1-38.7z"/></g></svg>