<svg id="Calque_1" xmlns="http://www.w3.org/2000/svg" viewBox="0 0 76 35"><style>.st0{fill:#fff}</style><path class="st0" d="M62.8 23c0 6.6-5.4 12-12 12s-12-5.4-12-12 5.4-12 12-12c6.7 0 12 5.4 12 12m-12-10c-5.5 0-10 4.5-10 10s4.5 10 10 10 10-4.5 10-10-4.4-10-10-10"/><path class="st0" d="M76 12c0 6.6-5.4 12-12 12s-12-5.4-12-12S57.4 0 64 0s12 5.4 12 12M64 2c-5.5 0-10 4.5-10 10s4.5 10 10 10 10-4.5 10-10S69.5 2 64 2"/><path class="st0" d="M54.2 13.5c-.7-.2-1.4-.4-2.2-.5l-.1-1 .1-1c.7.1 1.4.2 2.1.4l.1 2.1zM37 23c0 6.6-5.4 12-12 12s-12-5.4-12-12 5.4-12 12-12 12 5.4 12 12M25 13c-5.5 0-10 4.5-10 10s4.5 10 10 10 10-4.5 10-10-4.5-10-10-10"/><path class="st0" d="M24 12c0 6.6-5.4 12-12 12S0 18.6 0 12 5.4 0 12 0s12 5.4 12 12M12 2C6.5 2 2 6.5 2 12s4.5 10 10 10 10-4.5 10-10S17.5 2 12 2m38 10c0 6.6-5.4 12-12 12s-12-5.4-12-12S31.4 0 38 0s12 5.4 12 12M38 2c-5.5 0-10 4.5-10 10s4.5 10 10 10 10-4.5 10-10S43.5 2 38 2"/><path class="st0" d="M13 24.1V23c0-.4 0-.8.1-1.2l2.1-.4c-.2.5-.2 1-.2 1.6v.7l-2 .4zm26-.1v-1c0-.4 0-.8.1-1.1l2.1-.4c-.2.4-.2 1-.2 1.5v.7l-.9.5L39 24zM28.2 13.5c-.7-.3-1.5-.4-2.3-.5l-.9-2h.8c.8.1 1.6.2 2.3.4l.1 2.1z"/></svg>