<svg xmlns="http://www.w3.org/2000/svg" viewBox="0 0 1417.3 762.2"><linearGradient id="a" gradientUnits="userSpaceOnUse" x1="847.103" y1="-5279.492" x2="847.103" y2="-4495.978" gradientTransform="matrix(-1.2253 -.08958 .06411 -.877 2060.633 -3838.117)"><stop offset="0" stop-color="#27397a"/><stop offset="1" stop-color="#1aa2da"/></linearGradient><path d="M1509.3 776c4.6 1.1-9.3-1.5-14.1-2.3-185.3-29.9-443.6-59.8-725-82.7-274.9-22.4-571.8-38.3-844.2-41.3-5.7-.1-22.2 1-20-4.2C-86 627-94 1-94 1c4.6 0 12.2 0 16.8-.1C346.2-.6 953.4 21.7 1497.4 126.1c3.5.7 11.2 1.3 11.6 4.9 1 8.8-4 644 .3 645z" fill="url(#a)"/></svg>