<svg id="Calque_1" xmlns="http://www.w3.org/2000/svg" viewBox="0 0 1604.4 775.4"><style>.st0{fill:url(#SVGID_1_)}</style><linearGradient id="SVGID_1_" gradientUnits="userSpaceOnUse" x1="941.31" y1="-5280.364" x2="941.31" y2="-4496.851" gradientTransform="matrix(-1.2253 -.08958 .06411 -.877 2270.33 -3831.315)"><stop offset="0" stop-color="#27397a"/><stop offset="1" stop-color="#1aa2da"/></linearGradient><path class="st0" d="M1603.5 775.1c4.6 1.1-9.3-1.5-14.1-2.3-185.3-29.9-443.6-59.8-725-82.7-274.9-22.4-571.8-38.3-844.2-41.3-5.7-.1-22.2 1-20-4.2C8.2 626.1.2.1.2.1 4.8.1 12.4.1 17 0c423.4-1.5 1030.6 20.8 1574.5 125.2 3.5.7 11.2 1.3 11.6 4.9 1.1 8.8-3.9 644 .4 645z"/></svg>