<svg xmlns="http://www.w3.org/2000/svg" xmlns:xlink="http://www.w3.org/1999/xlink" viewBox="0 0 60.58 123.94"><defs><linearGradient id="a" x1="-561.79" y1="1209.53" x2="-560.79" y2="1209.53" gradientTransform="matrix(39.48, -26.32, -26.32, -39.48, 54022.49, 33042.25)" gradientUnits="userSpaceOnUse"><stop offset="0" stop-color="#3134a0"/><stop offset="0.01" stop-color="#3134a0"/><stop offset="0.45" stop-color="#00a2ec"/><stop offset="0.5" stop-color="#00a2ec"/><stop offset="0.66" stop-color="#00a2ec"/><stop offset="1" stop-color="#76b71c"/></linearGradient><linearGradient id="b" x1="-546.57" y1="1237.49" x2="-545.57" y2="1237.49" gradientTransform="matrix(16.79, 76.24, 76.24, -16.79, -85145.42, 62444.07)" gradientUnits="userSpaceOnUse"><stop offset="0" stop-color="#e20613"/><stop offset="0.09" stop-color="#e20613"/><stop offset="0.67" stop-color="#e80073"/><stop offset="0.68" stop-color="#e80073"/><stop offset="1" stop-color="#ffd000"/></linearGradient><linearGradient id="c" x1="-577.91" y1="1220.35" x2="-576.91" y2="1220.35" gradientTransform="matrix(5.31, -51.27, -51.27, -5.31, 65647.81, -23063.46)" gradientUnits="userSpaceOnUse"><stop offset="0" stop-color="#7fdcff"/><stop offset="0.5" stop-color="#009eff"/><stop offset="0.99" stop-color="#1e348a"/><stop offset="1" stop-color="#1e348a"/></linearGradient></defs><title>Logo_JO_d&amp;apos;été_-_Candidature_Paris_2024</title><path d="M36.8,112.61A5.15,5.15,0,1,0,42,117.76a5.14,5.14,0,0,0-5.15-5.15M43,117.76a6.18,6.18,0,1,1-6.18-6.18A6.18,6.18,0,0,1,43,117.76" style="fill:#00a651"/><path d="M43.58,106.94a5.15,5.15,0,1,0,5.15,5.15,5.15,5.15,0,0,0-5.15-5.15m6.18,5.15a6.18,6.18,0,1,1-6.18-6.18,6.18,6.18,0,0,1,6.18,6.18" style="fill:#ee334e"/><path d="M38.52,112.87a5.28,5.28,0,0,0-1.13-.24l-.07-.54.07-.49a6.41,6.41,0,0,1,1.08.18Z" style="fill:#00a651"/><path d="M23.48,112.61a5.15,5.15,0,1,0,5.16,5.15,5.15,5.15,0,0,0-5.16-5.15m6.19,5.15a6.19,6.19,0,1,1-6.19-6.18,6.18,6.18,0,0,1,6.19,6.18" style="fill:#fcb131"/><path d="M16.78,106.94a5.15,5.15,0,1,0,5.16,5.15,5.16,5.16,0,0,0-5.16-5.15M23,112.09a6.19,6.19,0,1,1-6.19-6.18A6.18,6.18,0,0,1,23,112.09" style="fill:#0081c8"/><path d="M30.18,106.94a5.15,5.15,0,1,0,5.15,5.15,5.15,5.15,0,0,0-5.15-5.15m6.18,5.15a6.18,6.18,0,1,1-6.18-6.18,6.17,6.17,0,0,1,6.18,6.18"/><path d="M17.32,118.31c0-.18,0-.36,0-.55s0-.41,0-.62l1.07-.21a4.57,4.57,0,0,0-.07.83c0,.12,0,.25,0,.37Z" style="fill:#fcb131"/><path d="M30.72,118.27a4.35,4.35,0,0,1,0-.51,5.52,5.52,0,0,1,0-.58l1.07-.23a5.32,5.32,0,0,0-.06.81c0,.11,0,.23,0,.34l-.47.24Z" style="fill:#00a651"/><path d="M25.15,112.88a4.74,4.74,0,0,0-1.2-.25l-.47-1h.43a6.68,6.68,0,0,1,1.2.2Z" style="fill:#fcb131"/><path d="M60.16,95.51c-.2,0-.4,0-.64,0v-2H57.79v1.95H56.24l1.95-4.81c-.57-.16-1.08-.32-1.6-.45-.08,0-.25.11-.29.21-.67,1.59-1.34,3.18-2,4.77a2.29,2.29,0,0,0-.08,1.63.45.45,0,0,0,.51.36c.78,0,1.57,0,2.36,0h.72v1.46h1.73V97.19h.9l.13-.32V95.78A.33.33,0,0,0,60.16,95.51Z"/><path d="M19.23,95.18a2.65,2.65,0,0,0,1.15-2.8,2.29,2.29,0,0,0-2.05-2,10.5,10.5,0,0,0-3.58.06c-.31,0-.39.15-.39.46,0,2.4,0,4.8,0,7.21v.38h1.87V95.71a3.52,3.52,0,0,0,.46,0,.66.66,0,0,1,.77.45c.38.72.8,1.42,1.21,2.11.07.12.19.27.28.27.63,0,1.25,0,1.95-.07-.65-1.11-1.25-2.12-1.87-3.16Zm-1.48-1.1a.88.88,0,0,1-.27.06c-.4,0-.8,0-1.24,0V91.88a10.43,10.43,0,0,1,1.5.09,1,1,0,0,1,.8,1A1.08,1.08,0,0,1,17.75,94.08Z"/><path d="M43.56,90.21A3,3,0,0,0,40.73,92a6,6,0,0,0-.52,2.67,5.35,5.35,0,0,0,.46,2.18,3,3,0,0,0,2.91,1.88A3,3,0,0,0,46.49,97a5.64,5.64,0,0,0,0-5.08A3,3,0,0,0,43.56,90.21Zm1.36,5.86a1.25,1.25,0,0,1-1.27,1,1.27,1.27,0,0,1-1.29-1,5.17,5.17,0,0,1,0-3.16,1.3,1.3,0,0,1,1.28-1,1.34,1.34,0,0,1,1.32,1,2.54,2.54,0,0,1,.13.45c0,.37.07.74.13,1.27S45.07,95.56,44.92,96.07Z"/><path d="M29.91,94.12a12.21,12.21,0,0,0-1.68-.66,9.37,9.37,0,0,1-1.05-.38.61.61,0,0,1-.31-.47c0-.18.19-.36.33-.5a.76.76,0,0,1,.4-.13,3.24,3.24,0,0,1,2.15.46c.19.11.35.13.47,0a7.37,7.37,0,0,0,.56-1.08.44.44,0,0,0-.15-.41,4.41,4.41,0,0,0-4.36-.26,2.21,2.21,0,0,0-1.22,2.28,2.06,2.06,0,0,0,1.31,1.9c.38.17.8.27,1.2.42a9.05,9.05,0,0,1,1.26.47.6.6,0,0,1-.08,1.1,1.76,1.76,0,0,1-.56.13,3.75,3.75,0,0,1-2.53-.74,1.79,1.79,0,0,0-.81,1.25.5.5,0,0,0,.13.39,5,5,0,0,0,4.88.37C31.18,97.42,31.43,95,29.91,94.12Z"/><path d="M11,91.54c-.47-1.27-.47-1.27-1.83-1.19a.58.58,0,0,0-.59.43c-.6,1.67-1.22,3.33-1.84,5l-1,2.66c.38,0,.71.11,1,.11.79,0,.79,0,1-.74.07-.2.15-.39.2-.59s.21-.33.47-.32c.68,0,1.35,0,2,0a.6.6,0,0,1,.73.51c.41,1.27.43,1.27,1.8,1.08l.44-.09c0-.1,0-.17-.06-.23ZM8.8,95.3l.86-2.48c.3.84.58,1.64.87,2.48Z"/><path d="M4.06,90.35A10,10,0,0,0,.4,90.4c-.3,0-.4.14-.4.46q0,3.65,0,7.28c0,.12,0,.23,0,.41H1.56c.24,0,.32-.12.31-.37,0-.7,0-1.39,0-2.15a3.29,3.29,0,0,0,.46,0,11.17,11.17,0,0,0,2-.27,2.71,2.71,0,0,0,1.86-2.89A2.49,2.49,0,0,0,4.06,90.35Zm-.59,3.92a12.91,12.91,0,0,1-1.59.17V91.8a15.25,15.25,0,0,1,1.54.12A1,1,0,0,1,4.3,93,1.16,1.16,0,0,1,3.47,94.27Z"/><path d="M52.65,94.54a2.76,2.76,0,0,0-.46-3.79,3.47,3.47,0,0,0-4.58.78.39.39,0,0,0,0,.33,1.62,1.62,0,0,0,.85.91.4.4,0,0,0,.48-.06A4.49,4.49,0,0,1,50,92.1a.93.93,0,0,1,1.1.26,1,1,0,0,1,.07,1.17,2.7,2.7,0,0,1-.43.63c-.77.82-1.55,1.63-2.35,2.42a2,2,0,0,0-.73,1.82c0,.25.13.32.37.32h5.5V97H50.53A31.62,31.62,0,0,0,52.65,94.54Z"/><path d="M38.89,97c-.88,0-1.76,0-2.69,0l.2-.17a9.27,9.27,0,0,0,2.22-2.45,2.67,2.67,0,0,0-1.34-4,3.45,3.45,0,0,0-3.35.61c-.76.62-.72,1.15.12,1.68l.17.09a.37.37,0,0,0,.51-.07,2,2,0,0,1,1.45-.63c.55,0,1,.34.88.88a2.12,2.12,0,0,1-.46,1.11c-.79.89-1.64,1.75-2.49,2.59a2,2,0,0,0-.67,1.77c0,.19.08.31.31.31,1.76,0,3.51,0,5.27,0a.38.38,0,0,0,.29-.24c0-.37,0-.74,0-1.11S39.2,96.94,38.89,97Z"/><path d="M21.87,98.52h1.79V90.41H21.87Z"/><path d="M22.82,57.71c-5.93,3.64-11.57,8.16-15.56,14.41h0v0h0C6.05,74,12.47,79.05,13,79.05h0a47.62,47.62,0,0,1,15-15.25h0c7-4.38,15-7.6,23.33-8h0c.05,0-2.65-6.09-5.1-6.09h0c-8.35.43-16.29,3.69-23.34,8" style="fill:url(#a)"/><path d="M26,2.35c-.41,11.87,1.54,68.74,17.89,78.73h0c.51.31,10-1.44,10-1.44h0C33.08,59.62,32.93,10.35,32.77.36h0c0-.25-.46-.36-1.13-.36h0C29.72,0,26,1,26,2.35" style="fill:url(#b)"/><path d="M13.32,25c-2.22.17-4.12,1.78-5.49,3.37h0c-1.21,1.41,5.11,6.09,5.11,6.09h0a9.06,9.06,0,0,1,4.58-3.24h0A4.27,4.27,0,0,1,18.8,31h0a31.52,31.52,0,0,1,.26,8.83h0a55,55,0,0,1-1.69,9.88h0A75.16,75.16,0,0,1,7.25,72.13h0c-1.23,1.93,5,6.93,5.7,6.93h0C28.74,55.57,25.26,34.23,21,28.66h0a8.26,8.26,0,0,0-6.91-3.74h0a7.39,7.39,0,0,0-.8,0" style="fill:url(#c)"/></svg>
