<?xml version="1.0" encoding="utf-8"?>
<svg version="1.1" id="Calque_1" xmlns="http://www.w3.org/2000/svg" xmlns:xlink="http://www.w3.org/1999/xlink" x="0px" y="0px"
	 viewBox="0 0 303.8 494.4" style="enable-background:new 0 0 303.8 494.4;" xml:space="preserve">
<style type="text/css">
	.st0{fill:none;}
	.st1{fill:url(#SVGID_1_);}
	.st2{fill:url(#SVGID_2_);}
	.st3{fill:url(#SVGID_3_);}
	.st4{fill:#FFFFFF;}
</style>
<g>
	<rect class="st0" width="303.8" height="494.4"/>
	<g>
		<g>
				<linearGradient id="SVGID_1_" gradientUnits="userSpaceOnUse" x1="1357.1985" y1="-1629.6632" x2="1474.885" y2="-1708.1211" gradientTransform="matrix(1 0 0 1 -1272.3026 1919.0438)">
				<stop  offset="0" style="stop-color:#313682"/>
				<stop  offset="0.2152" style="stop-color:#2D61A1"/>
				<stop  offset="0.4125" style="stop-color:#2685C2"/>
				<stop  offset="0.5047" style="stop-color:#1B96D3"/>
				<stop  offset="1" style="stop-color:#76AF42"/>
			</linearGradient>
			<path class="st1" d="M83.3,277.2c-3.6,5.6,15.5,20.6,17,20.6c11-18,27-34.4,44.6-45.5c20.8-13.1,44.8-22.6,69.6-23.9
				c0.1,0-7.9-18.2-15.2-18.2c-24.9,1.3-48.5,11-69.6,23.9C112,245.1,95.2,258.5,83.3,277.2C83.4,277.2,83.3,277.2,83.3,277.2z"/>
		</g>

			<linearGradient id="SVGID_2_" gradientUnits="userSpaceOnUse" x1="1417.1757" y1="-1852.5237" x2="1467.2104" y2="-1625.257" gradientTransform="matrix(1 0 0 1 -1272.3026 1919.0438)">
			<stop  offset="0" style="stop-color:#D91F26"/>
			<stop  offset="9.200849e-02" style="stop-color:#D91F2E"/>
			<stop  offset="0.2805" style="stop-color:#DA1D45"/>
			<stop  offset="0.5465" style="stop-color:#DB1865"/>
			<stop  offset="0.6717" style="stop-color:#DB1375"/>
			<stop  offset="1" style="stop-color:#FFC40C"/>
		</linearGradient>
		<path class="st2" d="M192.5,303.9c-48.7-29.8-54.5-199.3-53.3-234.7l0,0c0-5.6,20.1-8.8,20.2-5.9c0.5,29.8,0.9,176.6,62.9,236.3
			C222.2,299.6,194,304.8,192.5,303.9z"/>

			<linearGradient id="SVGID_3_" gradientUnits="userSpaceOnUse" x1="1369.2411" y1="-1620.3633" x2="1385.0826" y2="-1773.1868" gradientTransform="matrix(1 0 0 1 -1272.3026 1919.0438)">
			<stop  offset="0" style="stop-color:#91CCEC"/>
			<stop  offset="0.4976" style="stop-color:#1B96D3"/>
			<stop  offset="0.9989" style="stop-color:#293881"/>
		</linearGradient>
		<path class="st3" d="M124.4,147.6c-4.7-6.1-11.3-11.9-23-11c-6.6,0.5-12.3,5.3-16.4,10.1c-3.6,4.2,15.2,18.2,15.2,18.2
			c3.6-4.5,8-8.1,13.7-9.7c1.2-0.3,2.5-0.5,3.8-0.4c1.9,8.5,1.4,17.8,0.8,26.3c-0.7,10-2.6,19.8-5.1,29.5c-6,23.3-17,47.1-30.1,66.7
			c-3.7,5.8,15,20.6,17,20.6C147.4,227.9,137,164.2,124.4,147.6z"/>
	</g>
	<g>
		<g>
			<path class="st4" d="M190.8,413.7c0,10.2-8.3,18.5-18.5,18.5c-10.2,0-18.5-8.3-18.5-18.5c0-10.2,8.3-18.5,18.5-18.5
				C182.5,395.2,190.8,403.5,190.8,413.7 M172.3,398.3c-8.5,0-15.4,6.9-15.4,15.4c0,8.5,6.9,15.4,15.4,15.4
				c8.5,0,15.4-6.9,15.4-15.4C187.7,405.2,180.8,398.3,172.3,398.3"/>
		</g>
		<g>
			<path class="st4" d="M211.1,396.8c0,10.2-8.3,18.5-18.5,18.5c-10.2,0-18.5-8.3-18.5-18.5c0-10.2,8.3-18.5,18.5-18.5
				C202.8,378.3,211.1,386.6,211.1,396.8 M192.6,381.4c-8.5,0-15.4,6.9-15.4,15.4c0,8.5,6.9,15.4,15.4,15.4
				c8.5,0,15.4-6.9,15.4-15.4C208,388.3,201.1,381.4,192.6,381.4"/>
			<path class="st4" d="M177.5,399.1c-1.1-0.4-2.2-0.6-3.4-0.7l-0.2-1.6l0.2-1.5c1.1,0.1,2.2,0.3,3.2,0.6L177.5,399.1z"/>
			<path class="st4" d="M151,413.7c0,10.2-8.3,18.5-18.5,18.5c-10.2,0-18.5-8.3-18.5-18.5c0-10.2,8.3-18.5,18.5-18.5
				C142.7,395.2,151,403.5,151,413.7 M132.5,398.3c-8.5,0-15.4,6.9-15.4,15.4c0,8.5,6.9,15.4,15.4,15.4c8.5,0,15.4-6.9,15.4-15.4
				C147.9,405.2,141,398.3,132.5,398.3"/>
			<path class="st4" d="M131,396.8c0,10.2-8.3,18.5-18.5,18.5c-10.2,0-18.5-8.3-18.5-18.5c0-10.2,8.3-18.5,18.5-18.5
				C122.7,378.3,131,386.6,131,396.8 M112.5,381.4c-8.5,0-15.4,6.9-15.4,15.4c0,8.5,6.9,15.4,15.4,15.4c8.5,0,15.4-6.9,15.4-15.4
				C127.9,388.3,121,381.4,112.5,381.4"/>
			<path class="st4" d="M171,396.8c0,10.2-8.3,18.5-18.5,18.5c-10.2,0-18.5-8.3-18.5-18.5c0-10.2,8.3-18.5,18.5-18.5
				C162.8,378.3,171,386.6,171,396.8 M152.5,381.4c-8.5,0-15.4,6.9-15.4,15.4c0,8.5,6.9,15.4,15.4,15.4c8.5,0,15.4-6.9,15.4-15.4
				C167.9,388.3,161.1,381.4,152.5,381.4"/>
			<path class="st4" d="M114.1,415.4c0-0.5-0.1-1.1-0.1-1.7c0-0.6,0-1.2,0.1-1.8l3.2-0.7c-0.1,0.8-0.2,1.6-0.2,2.5
				c0,0.4,0,0.7,0,1.1L114.1,415.4z"/>
			<path class="st4" d="M154.1,415.3c0-0.5-0.1-1-0.1-1.5c0-0.6,0-1.2,0.1-1.7l3.2-0.7c-0.1,0.8-0.2,1.6-0.2,2.4c0,0.3,0,0.7,0,1
				l-1.4,0.7L154.1,415.3z"/>
			<path class="st4" d="M137.5,399.2c-1.1-0.4-2.4-0.7-3.6-0.8l-1.4-3.1c0.4,0,0.9,0,1.3,0c1.2,0.1,2.4,0.3,3.6,0.6L137.5,399.2z"/>
		</g>
	</g>
	<path class="st4" d="M80.6,340c0,5.8-4,9-10.4,9c-0.9,0-1.7,0-2.6,0v7.4c-0.9,0.2-1.8,0.2-2.7,0.2c-0.9,0-1.8,0-2.8-0.2v-23.9
		c2.2-0.5,5-0.8,7.8-0.8C77.7,331.7,80.6,335,80.6,340z M75,340.1c0-2.2-1.5-3.7-4.8-3.7c-0.9,0-1.7,0-2.5,0.1v7.6
		c0.8,0,1.7,0,2.6,0C73.7,344.2,75,342.4,75,340.1z"/>
	<path class="st4" d="M102.6,356.1c-1.1,0.3-2.3,0.4-3.5,0.4c-0.7,0-1.4-0.1-2-0.2l-1.7-4.8h-8.7l-1.7,4.8c-0.8,0.1-1.7,0.1-2.5,0.1
		c-1.1,0-2.1-0.1-2.9-0.4l8.8-23.8c0.9-0.2,1.9-0.2,2.8-0.2c1,0,1.8,0,2.7,0.2L102.6,356.1z M93.7,347l-2-5.5l-0.7-2.3l-0.7,2.3
		l-2,5.5H93.7z"/>
	<path class="st4" d="M124.4,356.1c-1.2,0.3-3,0.4-4.6,0.4c-0.5,0-1,0-1.4,0l-4.8-8.4h-0.3c-0.8,0-1.8,0-2.7,0v8.3
		c-0.9,0.2-1.8,0.2-2.7,0.2c-0.9,0-1.8,0-2.8-0.2v-23.7c2.3-0.5,5.3-0.8,7.9-0.8c7.1,0,10.1,3,10.1,7.7c0,3.5-1.7,5.9-4.2,7.2
		L124.4,356.1z M110.6,343.4c1,0,2,0,2.9,0c2.9,0,4-1.6,4-3.5c0-2.1-1.3-3.3-4-3.3c-1,0-1.9,0-2.9,0.1V343.4z"/>
	<path class="st4" d="M127.4,356.4v-24c0.9-0.2,1.8-0.2,2.7-0.2c0.9,0,1.8,0,2.8,0.2v24c-0.9,0.1-1.8,0.2-2.7,0.2
		C129.2,356.6,128.3,356.5,127.4,356.4z"/>
	<path class="st4" d="M136.2,354c0.2-1.9,1.2-3.6,2.5-4.5c1.5,1.3,4,2.3,6.8,2.3c2.6,0,3.7-0.9,3.7-2.2c0-1.2-0.6-1.9-4.7-3
		c-4-1-7.5-2.5-7.5-7.4c0-4.6,3.6-7.6,9-7.6c4.1,0,6.8,1.3,8.2,2.5c-0.1,1.7-1,3.6-2.5,4.5c-1.4-1-3.4-1.9-6-1.9
		c-2.2,0-3.3,0.8-3.3,1.9c0,1.2,0.5,1.7,4.7,2.8c4.4,1.1,7.4,3,7.5,7.3c0.1,5.2-3.5,8.1-9.1,8.1C140.6,357,137.7,355.4,136.2,354z"
		/>
	<path class="st4" d="M179.7,354.3c0,1-0.2,2.1-0.4,2.6h-17.1c-0.1-0.5-0.3-1.2-0.3-1.9c0-1.3,0.5-2.6,1.6-3.8
		c8.3-8.1,9.3-9.5,9.3-11.4c0-1.7-1-2.8-2.8-2.8c-2.1,0-3.6,1.2-4.9,2.5c-1.9-0.6-2.9-1.8-3.6-3.5c1.6-2.5,4.6-4.4,8.6-4.4
		c4.7,0,8.3,2.9,8.3,8.1c0,3.9-3.1,7.5-7.8,11.5l-0.9,0.7l1.1-0.1l8.4,0C179.5,352.5,179.7,353.5,179.7,354.3z"/>
	<path class="st4" d="M182.2,344.3c0-7.4,3.5-12.7,10.2-12.7c6.9,0,10.2,5.6,10.2,12.7c0,7.2-3.5,12.6-10.2,12.6
		C185.6,357,182.2,351.6,182.2,344.3z M197,344.3c0-4.5-1.2-7.6-4.6-7.6c-3.4,0-4.6,3.1-4.6,7.6c0,4.6,1.2,7.8,4.6,7.8
		C195.8,352.1,197,349,197,344.3z"/>
	<path class="st4" d="M222,354.3c0,1-0.2,2.1-0.4,2.6h-17.1c-0.1-0.5-0.3-1.2-0.3-1.9c0-1.3,0.5-2.6,1.6-3.8
		c8.3-8.1,9.3-9.5,9.3-11.4c0-1.7-1-2.8-2.8-2.8c-2.1,0-3.6,1.2-4.9,2.5c-1.9-0.6-2.9-1.8-3.6-3.5c1.6-2.5,4.6-4.4,8.6-4.4
		c4.7,0,8.3,2.9,8.3,8.1c0,3.9-3.1,7.5-7.8,11.5l-0.9,0.7l1.1-0.1l8.4,0C221.8,352.5,222,353.5,222,354.3z"/>
	<path class="st4" d="M242.6,352.5h-2.8v4.3c-0.8,0.1-1.6,0.2-2.4,0.2c-0.9,0-1.7-0.1-2.7-0.2v-4.3h-10.1c-1.2-1.9-1.1-3.8,0-6.6
		l5.9-14.1c2,0.1,3.8,0.7,5.2,1.7l-5.1,12.6c-0.3,0.6-0.4,1-0.4,1.5h4.6v-5.8c0.9-0.1,1.8-0.2,2.7-0.2c0.8,0,1.6,0.1,2.4,0.2v5.8
		h2.9c0.1,0.8,0.2,1.6,0.2,2.4C242.9,350.8,242.8,351.6,242.6,352.5z"/>
</g>
</svg>
