<?xml version="1.0" encoding="utf-8"?>
<svg version="1.1" xmlns="http://www.w3.org/2000/svg" xmlns:xlink="http://www.w3.org/1999/xlink" x="0px" y="0px"
	 viewBox="0 0 180.9 294.8" style="enable-background:new 0 0 180.9 294.8;" xml:space="preserve">
  <g>
		<linearGradient id="gfp24_logo-1" gradientUnits="userSpaceOnUse" x1="1295.0668" y1="2064.1506" x2="1412.7533" y2="2142.6086" gradientTransform="matrix(1 0 0 -1 -1272.3026 2291.2737)">
			<stop offset="0" style="stop-color:#313682"/>
			<stop offset="0.2152" style="stop-color:#2D61A1"/>
			<stop offset="0.4125" style="stop-color:#2685C2"/>
			<stop offset="0.5047" style="stop-color:#1B96D3"/>
			<stop offset="1" style="stop-color:#76AF42"/>
		</linearGradient>
		<path style="fill:url(#gfp24_logo-1);" d="M21.2,215c-3.6,5.6,15.5,20.6,17,20.6c11-18,27-34.4,44.6-45.5
			c20.8-13.1,44.8-22.6,69.6-23.9c0.1,0-7.9-18.2-15.2-18.2c-24.9,1.3-48.5,11-69.6,23.9C49.9,182.9,33.1,196.3,21.2,215
			C21.3,215,21.2,215,21.2,215z"/>
		<linearGradient id="gfp24_logo-2" gradientUnits="userSpaceOnUse" x1="1355.1088" y1="2286.9709" x2="1405.1436" y2="2059.7041" gradientTransform="matrix(1 0 0 -1 -1272.3026 2291.2737)">
  		<stop offset="0" style="stop-color:#D91F26"/>
  		<stop offset="9.200849e-02" style="stop-color:#D91F2E"/>
  		<stop offset="0.2805" style="stop-color:#DA1D45"/>
  		<stop offset="0.5465" style="stop-color:#DB1865"/>
  		<stop offset="0.6717" style="stop-color:#DB1375"/>
  		<stop offset="1" style="stop-color:#FFC40C"/>
  	</linearGradient>
  	<path style="fill:url(#gfp24_logo-2);" d="M130.4,241.7C81.7,211.9,75.9,42.4,77.1,7l0,0c0-5.6,20.1-8.8,20.2-5.9
  		c0.5,29.8,0.9,176.6,62.9,236.3C160.1,237.4,131.9,242.6,130.4,241.7z"/>
		<linearGradient id="gfp24_logo-3" gradientUnits="userSpaceOnUse" x1="1307.114" y1="2054.8059" x2="1322.9556" y2="2207.6294" gradientTransform="matrix(1 0 0 -1 -1272.3026 2291.2737)">
  		<stop offset="0" style="stop-color:#91CCEC"/>
  		<stop offset="0.4976" style="stop-color:#1B96D3"/>
  		<stop offset="0.9989" style="stop-color:#293881"/>
  	</linearGradient>
  	<path style="fill:url(#gfp24_logo-3);" d="M62.3,85.4c-4.7-6.1-11.3-11.9-23-11c-6.6,0.5-12.3,5.3-16.4,10.1
  		c-3.6,4.2,15.2,18.2,15.2,18.2c3.6-4.5,8-8.1,13.7-9.7c1.2-0.3,2.5-0.5,3.8-0.4c1.9,8.5,1.4,17.8,0.8,26.3
  		c-0.7,10-2.6,19.8-5.1,29.5c-6,23.3-17,47.1-30.1,66.7c-3.7,5.8,15,20.6,17,20.6C85.3,165.7,74.9,102,62.3,85.4z"/>
  </g>
  <g style="fill:#FFFFFF;">
    <path d="M18.5,277.8c0,5.8-4,9-10.4,9c-0.9,0-1.7,0-2.6,0v7.4c-0.9,0.2-1.8,0.2-2.7,0.2c-0.9,0-1.8,0-2.8-0.2
    	v-23.9c2.2-0.5,5-0.8,7.8-0.8C15.6,269.5,18.5,272.8,18.5,277.8z M12.9,277.9c0-2.2-1.5-3.7-4.8-3.7c-0.9,0-1.7,0-2.5,0.1v7.6
    	c0.8,0,1.7,0,2.6,0C11.6,282,12.9,280.2,12.9,277.9z"/>
    <path d="M40.5,293.9c-1.1,0.3-2.3,0.4-3.5,0.4c-0.7,0-1.4-0.1-2-0.2l-1.7-4.8h-8.7l-1.7,4.8
    	c-0.8,0.1-1.7,0.1-2.5,0.1c-1.1,0-2.1-0.1-2.9-0.4l8.8-23.8c0.9-0.2,1.9-0.2,2.8-0.2c1,0,1.8,0,2.7,0.2L40.5,293.9z M31.6,284.8
    	l-2-5.5l-0.7-2.3l-0.7,2.3l-2,5.5H31.6z"/>
    <path d="M62.3,293.9c-1.2,0.3-3,0.4-4.6,0.4c-0.5,0-1,0-1.4,0l-4.8-8.4h-0.3c-0.8,0-1.8,0-2.7,0v8.3
    	c-0.9,0.2-1.8,0.2-2.7,0.2c-0.9,0-1.8,0-2.8-0.2v-23.7c2.3-0.5,5.3-0.8,7.9-0.8c7.1,0,10.1,3,10.1,7.7c0,3.5-1.7,5.9-4.2,7.2
    	L62.3,293.9z M48.5,281.2c1,0,2,0,2.9,0c2.9,0,4-1.6,4-3.5c0-2.1-1.3-3.3-4-3.3c-1,0-1.9,0-2.9,0.1V281.2z"/>
    <path d="M65.3,294.2v-24c0.9-0.2,1.8-0.2,2.7-0.2c0.9,0,1.8,0,2.8,0.2v24c-0.9,0.1-1.8,0.2-2.7,0.2
    	C67.1,294.4,66.2,294.3,65.3,294.2z"/>
    <path d="M74.1,291.8c0.2-1.9,1.2-3.6,2.5-4.5c1.5,1.3,4,2.3,6.8,2.3c2.6,0,3.7-0.9,3.7-2.2
    	c0-1.2-0.6-1.9-4.7-3c-4-1-7.5-2.5-7.5-7.4c0-4.6,3.6-7.6,9-7.6c4.1,0,6.8,1.3,8.2,2.5c-0.1,1.7-1,3.6-2.5,4.5c-1.4-1-3.4-1.9-6-1.9
    	c-2.2,0-3.3,0.8-3.3,1.9c0,1.2,0.5,1.7,4.7,2.8c4.4,1.1,7.4,3,7.5,7.3c0.1,5.2-3.5,8.1-9.1,8.1C78.5,294.8,75.6,293.2,74.1,291.8z"
    	/>
    <path d="M117.6,292.1c0,1-0.2,2.1-0.4,2.6h-17.1c-0.1-0.5-0.3-1.2-0.3-1.9c0-1.3,0.5-2.6,1.6-3.8
    	c8.3-8.1,9.3-9.5,9.3-11.4c0-1.7-1-2.8-2.8-2.8c-2.1,0-3.6,1.2-4.9,2.5c-1.9-0.6-2.9-1.8-3.6-3.5c1.6-2.5,4.6-4.4,8.6-4.4
    	c4.7,0,8.3,2.9,8.3,8.1c0,3.9-3.1,7.5-7.8,11.5l-0.9,0.7l1.1-0.1h8.4C117.4,290.3,117.6,291.3,117.6,292.1z"/>
    <path d="M120.1,282.1c0-7.4,3.5-12.7,10.2-12.7c6.9,0,10.2,5.6,10.2,12.7c0,7.2-3.5,12.6-10.2,12.6
    	C123.5,294.8,120.1,289.4,120.1,282.1z M134.9,282.1c0-4.5-1.2-7.6-4.6-7.6c-3.4,0-4.6,3.1-4.6,7.6c0,4.6,1.2,7.8,4.6,7.8
    	C133.7,289.9,134.9,286.8,134.9,282.1z"/>
    <path d="M159.9,292.1c0,1-0.2,2.1-0.4,2.6h-17.1c-0.1-0.5-0.3-1.2-0.3-1.9c0-1.3,0.5-2.6,1.6-3.8
    	c8.3-8.1,9.3-9.5,9.3-11.4c0-1.7-1-2.8-2.8-2.8c-2.1,0-3.6,1.2-4.9,2.5c-1.9-0.6-2.9-1.8-3.6-3.5c1.6-2.5,4.6-4.4,8.6-4.4
    	c4.7,0,8.3,2.9,8.3,8.1c0,3.9-3.1,7.5-7.8,11.5l-0.9,0.7l1.1-0.1h8.4C159.7,290.3,159.9,291.3,159.9,292.1z"/>
    <path d="M180.5,290.3h-2.8v4.3c-0.8,0.1-1.6,0.2-2.4,0.2c-0.9,0-1.7-0.1-2.7-0.2v-4.3h-10.1
    	c-1.2-1.9-1.1-3.8,0-6.6l5.9-14.1c2,0.1,3.8,0.7,5.2,1.7l-5.1,12.6c-0.3,0.6-0.4,1-0.4,1.5h4.6v-5.8c0.9-0.1,1.8-0.2,2.7-0.2
    	c0.8,0,1.6,0.1,2.4,0.2v5.8h2.9c0.1,0.8,0.2,1.6,0.2,2.4C180.8,288.6,180.7,289.4,180.5,290.3z"/>
  </g>
</svg>
