<?xml version="1.0" encoding="utf-8"?>
<svg version="1.1" xmlns="http://www.w3.org/2000/svg" xmlns:xlink="http://www.w3.org/1999/xlink" x="0px" y="0px"
	 viewBox="0 0 139 62.2" style="enable-background:new 0 0 139 62.2;" xml:space="preserve">
  <g style="fill:#FFFFFF;">
  	<path d="M53.6,28.8c0,3-2.1,4.7-5.4,4.7c-0.4,0-1,0-1.4,0v3.9c-0.4,0.1-1,0.1-1.4,0.1c-0.4,0-1,0-1.5-0.1
  		V24.8c1.1-0.3,2.6-0.4,4.1-0.4C52.1,24.4,53.6,26.2,53.6,28.8z M50.7,28.9c0-1.2-0.8-1.9-2.5-1.9c-0.4,0-1,0-1.4,0v4
  		c0.4,0,0.8,0,1.4,0C50,31,50.7,30,50.7,28.9z"/>
  	<path d="M65.2,37.2c-0.6,0.1-1.2,0.3-1.8,0.3c-0.4,0-0.7,0-1.1-0.1l-0.8-2.5h-4.6l-0.8,2.5
  		c-0.4,0-0.8,0.1-1.4,0.1c-0.6,0-1.1,0-1.5-0.3l4.7-12.6c0.4-0.1,1-0.1,1.5-0.1c0.6,0,1,0,1.4,0.1L65.2,37.2z M60.5,32.5l-1.1-2.9
  		L59,28.4l-0.4,1.2l-1.1,2.9H60.5z"/>
  	<path d="M76.7,37.2c-0.7,0.1-1.5,0.3-2.5,0.3c-0.3,0-0.6,0-0.7,0l-2.6-4.4h-0.1c-0.4,0-1,0-1.4,0v4.4
  		c-0.4,0.1-1,0.1-1.4,0.1c-0.4,0-1,0-1.5-0.1V25.1c1.2-0.3,2.8-0.4,4.1-0.4c3.7,0,5.2,1.7,5.2,4c0,1.8-0.8,3-2.2,3.9L76.7,37.2z
  		 M69.4,30.6c0.6,0,1.1,0,1.5,0c1.5,0,2.1-0.8,2.1-1.8c0-1.1-0.7-1.8-2.1-1.8c-0.6,0-1,0-1.5,0V30.6z"/>
  	<path d="M78.2,37.4V24.8c0.4-0.1,1-0.1,1.4-0.1s1,0,1.5,0.1v12.6c-0.4,0.1-1,0.1-1.4,0.1
  		C79.2,37.5,78.8,37.5,78.2,37.4z"/>
  	<path d="M82.9,36.1c0.1-1,0.6-1.9,1.4-2.3c0.8,0.7,2.1,1.2,3.6,1.2c1.4,0,1.9-0.4,1.9-1.1
  		c0-0.7-0.3-1-2.5-1.7c-2.1-0.6-3.9-1.4-4-3.9c0-2.5,1.9-4,4.7-4c2.2,0,3.6,0.7,4.3,1.2c0,1-0.6,1.9-1.4,2.3c-0.7-0.6-1.8-1-3.2-1
  		c-1.1,0-1.8,0.4-1.8,1c0,0.7,0.3,1,2.5,1.5c2.3,0.6,3.9,1.7,4,3.9c0,2.8-1.8,4.3-4.8,4.3C85.1,37.8,83.6,36.9,82.9,36.1z"/>
  	<path d="M105.7,36.4c0,0.6-0.1,1.1-0.1,1.4h-9c-0.1-0.3-0.1-0.7-0.1-1c0-0.7,0.3-1.4,0.8-1.9
  		c4.4-4.3,4.8-5,4.8-5.9s-0.6-1.5-1.5-1.5c-1.1,0-1.9,0.6-2.6,1.2c-1-0.3-1.5-1-1.9-1.8c0.8-1.4,2.5-2.3,4.6-2.3
  		c2.5,0,4.4,1.5,4.4,4.3c0,2.1-1.7,4-4.1,6.1l-0.6,0.4h0.6h4.4C105.7,35.4,105.7,35.8,105.7,36.4z"/>
  	<path d="M107.1,31.1c0-3.9,1.8-6.6,5.4-6.6c3.6,0,5.4,2.9,5.4,6.6c0,3.9-1.8,6.6-5.4,6.6
  		C108.9,37.8,107.1,34.9,107.1,31.1z M114.8,31.1c0-2.3-0.6-4-2.3-4c-1.8,0-2.3,1.7-2.3,4c0,2.5,0.6,4.1,2.3,4.1
  		C114.3,35.3,114.8,33.5,114.8,31.1z"/>
  	<path d="M128,36.4c0,0.6-0.1,1.1-0.1,1.4h-9c-0.1-0.3-0.1-0.6-0.1-1c0-0.7,0.3-1.4,0.8-1.9
  		c4.4-4.3,4.8-5,4.8-5.9c0-1-0.6-1.5-1.5-1.5c-1.1,0-1.9,0.6-2.6,1.2c-1-0.3-1.5-1-1.9-1.8c0.8-1.4,2.5-2.3,4.6-2.3
  		c2.5,0,4.4,1.5,4.4,4.3c0,2.1-1.7,4-4.1,6.1l-0.6,0.4h0.6h4.4C128,35.4,128,35.8,128,36.4z"/>
  	<path d="M138.9,35.4h-1.5v2.2c-0.4,0.1-0.8,0.1-1.2,0.1s-1,0-1.4-0.1v-2.2h-5.4c-0.6-1-0.6-2.1,0-3.5l3-7.5
  		c1.1,0.1,1.9,0.4,2.8,0.8l-2.8,6.6c-0.1,0.3-0.3,0.6-0.3,0.8h2.3v-3c0.4-0.1,1-0.1,1.4-0.1s0.8,0,1.2,0.1v3h1.5
  		c0.1,0.4,0.1,0.8,0.1,1.2C139,34.5,139,34.9,138.9,35.4z"/>
  </g>
  <g style="fill:#4056C5;">
  	<path d="M0.1,55.3c-0.9,1.5,4,5.3,4.4,5.3c2.8-4.6,6.9-8.8,11.5-11.7c5.4-3.4,11.5-5.8,17.9-6.2
  		c0,0-2-4.7-3.9-4.7c-6.4,0.3-12.5,2.8-17.9,6.2C7.4,47,3.2,50.5,0.1,55.3L0.1,55.3z"/>
  	<path d="M28.2,62.1c-12.6-7.6-14-51.2-13.7-60.3l0,0c0-1.5,5.1-2.3,5.2-1.5c0.2,7.6,0.2,45.4,16.1,60.7
  		C35.8,61,28.6,62.4,28.2,62.1z"/>
  	<path d="M10.6,22c-1.2-1.6-2.9-3-5.9-2.8c-1.7,0.2-3.2,1.4-4.2,2.6c-0.9,1.1,3.9,4.7,3.9,4.7
  		c0.9-1.2,2.1-2.1,3.5-2.5c0.3-0.1,0.6-0.2,1-0.1c0.5,2.2,0.4,4.6,0.2,6.8c-0.2,2.6-0.7,5.1-1.3,7.6c-1.6,6-4.4,12.1-7.7,17.1
  		c-0.9,1.5,3.8,5.3,4.4,5.3C16.6,42.6,13.9,26.3,10.6,22z"/>
  </g>
</svg>
