<?xml version="1.0" encoding="utf-8"?>
<!-- Generator: Adobe Illustrator 21.1.0, SVG Export Plug-In . SVG Version: 6.00 Build 0)  -->
<svg version="1.1" id="Calque_1" xmlns="http://www.w3.org/2000/svg" xmlns:xlink="http://www.w3.org/1999/xlink" x="0px" y="0px"
	 viewBox="0 0 112.8 79.7" style="enable-background:new 0 0 112.8 79.7;" xml:space="preserve">
<style type="text/css">
	.st0{fill:#FFFFFF;}
	.st1{opacity:0.6;}
</style>
<g>
	<g>
		<g>
			<path class="st0" d="M93,53c0,3.9-3.2,7-7,7c-3.9,0-7-3.2-7-7c0-3.9,3.2-7,7-7C89.8,46,93,49.1,93,53 M85.9,47.1
				c-3.2,0-5.9,2.6-5.9,5.9c0,3.2,2.6,5.9,5.9,5.9c3.2,0,5.9-2.6,5.9-5.9C91.8,49.8,89.2,47.1,85.9,47.1"/>
		</g>
		<g>
			<path class="st0" d="M100.7,46.5c0,3.9-3.2,7-7,7c-3.9,0-7-3.2-7-7c0-3.9,3.2-7,7-7C97.5,39.5,100.7,42.7,100.7,46.5 M93.6,40.7
				c-3.2,0-5.9,2.6-5.9,5.9c0,3.2,2.6,5.9,5.9,5.9c3.2,0,5.9-2.6,5.9-5.9C99.5,43.3,96.9,40.7,93.6,40.7"/>
			<path class="st0" d="M87.9,47.4c-0.4-0.1-0.8-0.2-1.3-0.3l-0.1-0.6l0.1-0.6c0.4,0,0.8,0.1,1.2,0.2L87.9,47.4z"/>
			<path class="st0" d="M77.8,53c0,3.9-3.2,7-7,7c-3.9,0-7-3.2-7-7c0-3.9,3.2-7,7-7C74.7,46,77.8,49.1,77.8,53 M70.8,47.1
				c-3.2,0-5.9,2.6-5.9,5.9c0,3.2,2.6,5.9,5.9,5.9c3.2,0,5.9-2.6,5.9-5.9C76.6,49.8,74,47.1,70.8,47.1"/>
			<path class="st0" d="M70.2,46.5c0,3.9-3.2,7-7,7c-3.9,0-7-3.2-7-7c0-3.9,3.2-7,7-7C67,39.5,70.2,42.7,70.2,46.5 M63.1,40.7
				c-3.2,0-5.9,2.6-5.9,5.9c0,3.2,2.6,5.9,5.9,5.9c3.2,0,5.9-2.6,5.9-5.9C69,43.3,66.4,40.7,63.1,40.7"/>
			<path class="st0" d="M85.4,46.5c0,3.9-3.2,7-7,7c-3.9,0-7-3.2-7-7c0-3.9,3.2-7,7-7C82.3,39.5,85.4,42.7,85.4,46.5 M78.4,40.7
				c-3.2,0-5.9,2.6-5.9,5.9c0,3.2,2.6,5.9,5.9,5.9c3.2,0,5.9-2.6,5.9-5.9C84.3,43.3,81.6,40.7,78.4,40.7"/>
			<path class="st0" d="M63.8,53.6c0-0.2,0-0.4,0-0.6c0-0.2,0-0.5,0-0.7L65,52c-0.1,0.3-0.1,0.6-0.1,0.9c0,0.1,0,0.3,0,0.4
				L63.8,53.6z"/>
			<path class="st0" d="M79,53.6c0-0.2,0-0.4,0-0.6c0-0.2,0-0.4,0-0.7l1.2-0.3c0,0.3-0.1,0.6-0.1,0.9c0,0.1,0,0.3,0,0.4l-0.5,0.3
				L79,53.6z"/>
			<path class="st0" d="M72.7,47.4c-0.4-0.1-0.9-0.2-1.4-0.3L70.8,46c0.2,0,0.3,0,0.5,0c0.5,0,0.9,0.1,1.4,0.2L72.7,47.4z"/>
		</g>
	</g>
	<path class="st0" d="M51,24.9c0,2.2-1.5,3.4-3.9,3.4c-0.3,0-0.7,0-1,0v2.8c-0.3,0.1-0.7,0.1-1,0.1c-0.3,0-0.7,0-1.1-0.1v-9.1
		c0.8-0.2,1.9-0.3,3-0.3C49.9,21.7,51,23,51,24.9z M48.9,25c0-0.9-0.6-1.4-1.8-1.4c-0.3,0-0.7,0-1,0v2.9c0.3,0,0.6,0,1,0
		C48.4,26.5,48.9,25.8,48.9,25z"/>
	<path class="st0" d="M59.4,31c-0.4,0.1-0.9,0.2-1.3,0.2c-0.3,0-0.5,0-0.8-0.1l-0.6-1.8h-3.3l-0.6,1.8c-0.3,0-0.6,0.1-1,0.1
		c-0.4,0-0.8,0-1.1-0.2l3.4-9.1c0.3-0.1,0.7-0.1,1.1-0.1c0.4,0,0.7,0,1,0.1L59.4,31z M56,27.6l-0.8-2.1l-0.3-0.9l-0.3,0.9l-0.8,2.1
		H56z"/>
	<path class="st0" d="M67.7,31c-0.5,0.1-1.1,0.2-1.8,0.2c-0.2,0-0.4,0-0.5,0L63.5,28h-0.1c-0.3,0-0.7,0-1,0v3.2
		c-0.3,0.1-0.7,0.1-1,0.1c-0.3,0-0.7,0-1.1-0.1v-9c0.9-0.2,2-0.3,3-0.3c2.7,0,3.8,1.2,3.8,2.9c0,1.3-0.6,2.2-1.6,2.8L67.7,31z
		 M62.4,26.2c0.4,0,0.8,0,1.1,0c1.1,0,1.5-0.6,1.5-1.3c0-0.8-0.5-1.3-1.5-1.3c-0.4,0-0.7,0-1.1,0V26.2z"/>
	<path class="st0" d="M68.8,31.1V22c0.3-0.1,0.7-0.1,1-0.1c0.3,0,0.7,0,1.1,0.1v9.1c-0.3,0.1-0.7,0.1-1,0.1
		C69.5,31.2,69.2,31.2,68.8,31.1z"/>
	<path class="st0" d="M72.2,30.2c0.1-0.7,0.4-1.4,1-1.7c0.6,0.5,1.5,0.9,2.6,0.9c1,0,1.4-0.3,1.4-0.8c0-0.5-0.2-0.7-1.8-1.2
		c-1.5-0.4-2.8-1-2.9-2.8c0-1.8,1.4-2.9,3.4-2.9c1.6,0,2.6,0.5,3.1,0.9c0,0.7-0.4,1.4-1,1.7c-0.5-0.4-1.3-0.7-2.3-0.7
		c-0.8,0-1.3,0.3-1.3,0.7c0,0.5,0.2,0.7,1.8,1.1c1.7,0.4,2.8,1.2,2.9,2.8c0,2-1.3,3.1-3.5,3.1C73.8,31.4,72.7,30.8,72.2,30.2z"/>
	<path class="st0" d="M88.7,30.4c0,0.4-0.1,0.8-0.1,1h-6.5C82,31.2,82,30.9,82,30.7c0-0.5,0.2-1,0.6-1.4c3.2-3.1,3.5-3.6,3.5-4.3
		c0-0.7-0.4-1.1-1.1-1.1c-0.8,0-1.4,0.4-1.9,0.9c-0.7-0.2-1.1-0.7-1.4-1.3c0.6-1,1.8-1.7,3.3-1.7c1.8,0,3.2,1.1,3.2,3.1
		c0,1.5-1.2,2.9-3,4.4l-0.4,0.3l0.4,0l3.2,0C88.7,29.7,88.7,30,88.7,30.4z"/>
	<path class="st0" d="M89.7,26.6c0-2.8,1.3-4.8,3.9-4.8c2.6,0,3.9,2.1,3.9,4.8c0,2.8-1.3,4.8-3.9,4.8C91,31.4,89.7,29.3,89.7,26.6z
		 M95.3,26.6c0-1.7-0.4-2.9-1.7-2.9s-1.7,1.2-1.7,2.9c0,1.8,0.4,3,1.7,3S95.3,28.3,95.3,26.6z"/>
	<path class="st0" d="M104.8,30.4c0,0.4-0.1,0.8-0.1,1h-6.5c-0.1-0.2-0.1-0.4-0.1-0.7c0-0.5,0.2-1,0.6-1.4c3.2-3.1,3.5-3.6,3.5-4.3
		c0-0.7-0.4-1.1-1.1-1.1c-0.8,0-1.4,0.4-1.9,0.9c-0.7-0.2-1.1-0.7-1.4-1.3c0.6-1,1.8-1.7,3.3-1.7c1.8,0,3.2,1.1,3.2,3.1
		c0,1.5-1.2,2.9-3,4.4l-0.4,0.3l0.4,0l3.2,0C104.8,29.7,104.8,30,104.8,30.4z"/>
	<path class="st0" d="M112.7,29.7h-1.1v1.6c-0.3,0.1-0.6,0.1-0.9,0.1c-0.3,0-0.7,0-1-0.1v-1.6h-3.9c-0.4-0.7-0.4-1.5,0-2.5l2.2-5.4
		c0.8,0.1,1.4,0.3,2,0.6l-2,4.8c-0.1,0.2-0.2,0.4-0.2,0.6h1.7v-2.2c0.3-0.1,0.7-0.1,1-0.1c0.3,0,0.6,0,0.9,0.1v2.2h1.1
		c0.1,0.3,0.1,0.6,0.1,0.9C112.8,29,112.8,29.3,112.7,29.7z"/>
</g>
<g class="st1">
	<g>
		<path class="st0" d="M0.2,70.9c-1.2,1.9,5.1,6.8,5.6,6.8c3.6-5.9,8.9-11.3,14.7-15c6.9-4.3,14.8-7.5,22.9-7.9c0,0-2.6-6-5-6
			c-8.2,0.4-16,3.6-22.9,7.9C9.6,60.3,4.1,64.8,0.2,70.9C0.2,70.9,0.2,70.9,0.2,70.9z"/>
	</g>
	<path class="st0" d="M36.2,79.7C20.1,69.9,18.2,14,18.6,2.3l0,0c0-1.9,6.6-2.9,6.7-1.9c0.2,9.8,0.3,58.3,20.7,77.9
		C46,78.3,36.7,80,36.2,79.7z"/>
	<path class="st0" d="M13.7,28.2c-1.5-2-3.7-3.9-7.6-3.6c-2.2,0.2-4.1,1.8-5.4,3.3c-1.2,1.4,5,6,5,6c1.2-1.5,2.7-2.7,4.5-3.2
		c0.4-0.1,0.8-0.2,1.3-0.1c0.6,2.8,0.5,5.9,0.3,8.7c-0.2,3.3-0.9,6.5-1.7,9.7c-2,7.7-5.6,15.5-9.9,22c-1.2,1.9,4.9,6.8,5.6,6.8
		C21.3,54.6,17.9,33.7,13.7,28.2z"/>
</g>
</svg>
