<?xml version="1.0" encoding="utf-8"?>
<!-- Generator: Adobe Illustrator 21.1.0, SVG Export Plug-In . SVG Version: 6.00 Build 0)  -->
<svg version="1.1" id="Calque_1" xmlns="http://www.w3.org/2000/svg" xmlns:xlink="http://www.w3.org/1999/xlink" x="0px" y="0px"
	 viewBox="0 0 76 35" style="enable-background:new 0 0 76 35;" xml:space="preserve">
<style type="text/css">
	.st0{fill:#FFFFFF;}
</style>
<g>
	<g>
		<path class="st0" d="M62.8,23c0,6.6-5.4,12-12,12c-6.6,0-12-5.4-12-12c0-6.6,5.4-12,12-12C57.5,11,62.8,16.4,62.8,23 M50.8,13
			c-5.5,0-10,4.5-10,10c0,5.5,4.5,10,10,10c5.5,0,10-4.5,10-10C60.8,17.5,56.4,13,50.8,13"/>
	</g>
	<g>
		<path class="st0" d="M76,12c0,6.6-5.4,12-12,12c-6.6,0-12-5.4-12-12c0-6.6,5.4-12,12-12C70.6,0,76,5.4,76,12 M64,2
			c-5.5,0-10,4.5-10,10c0,5.5,4.5,10,10,10c5.5,0,10-4.5,10-10C74,6.5,69.5,2,64,2"/>
		<path class="st0" d="M54.2,13.5c-0.7-0.2-1.4-0.4-2.2-0.5L51.9,12l0.1-1c0.7,0.1,1.4,0.2,2.1,0.4L54.2,13.5z"/>
		<path class="st0" d="M37,23c0,6.6-5.4,12-12,12c-6.6,0-12-5.4-12-12c0-6.6,5.4-12,12-12C31.6,11,37,16.4,37,23 M25,13
			c-5.5,0-10,4.5-10,10c0,5.5,4.5,10,10,10c5.5,0,10-4.5,10-10C35,17.5,30.5,13,25,13"/>
		<path class="st0" d="M24,12c0,6.6-5.4,12-12,12C5.4,24,0,18.6,0,12C0,5.4,5.4,0,12,0C18.6,0,24,5.4,24,12 M12,2C6.5,2,2,6.5,2,12
			c0,5.5,4.5,10,10,10c5.5,0,10-4.5,10-10C22,6.5,17.5,2,12,2"/>
		<path class="st0" d="M50,12c0,6.6-5.4,12-12,12c-6.6,0-12-5.4-12-12c0-6.6,5.4-12,12-12C44.6,0,50,5.4,50,12 M38,2
			c-5.5,0-10,4.5-10,10c0,5.5,4.5,10,10,10c5.5,0,10-4.5,10-10C48,6.5,43.5,2,38,2"/>
		<path class="st0" d="M13,24.1c0-0.4,0-0.7,0-1.1c0-0.4,0-0.8,0.1-1.2l2.1-0.4C15,21.9,15,22.4,15,23c0,0.2,0,0.5,0,0.7L13,24.1z"
			/>
		<path class="st0" d="M39,24c0-0.3,0-0.7,0-1c0-0.4,0-0.8,0.1-1.1l2.1-0.4C41,21.9,41,22.5,41,23c0,0.2,0,0.4,0,0.7l-0.9,0.5L39,24
			z"/>
		<path class="st0" d="M28.2,13.5c-0.7-0.3-1.5-0.4-2.3-0.5L25,11c0.3,0,0.6,0,0.8,0c0.8,0.1,1.6,0.2,2.3,0.4L28.2,13.5z"/>
	</g>
</g>
</svg>
