<?xml version="1.0" encoding="utf-8"?>
<!-- Generator: Adobe Illustrator 21.1.0, SVG Export Plug-In . SVG Version: 6.00 Build 0)  -->
<svg version="1.1" id="Calque_1" xmlns="http://www.w3.org/2000/svg" xmlns:xlink="http://www.w3.org/1999/xlink" x="0px" y="0px"
	 viewBox="0 0 1604.4 775.4" style="enable-background:new 0 0 1604.4 775.4;" xml:space="preserve">
<style type="text/css">
	.st0{fill:url(#SVGID_1_);}
</style>
<linearGradient id="SVGID_1_" gradientUnits="userSpaceOnUse" x1="941.3097" y1="-5280.3643" x2="941.3097" y2="-4496.8506" gradientTransform="matrix(-1.2253 -8.958083e-02 6.411244e-02 -0.877 2270.3291 -3831.3149)">
	<stop  offset="0" style="stop-color:#DA1F26"/>
	<stop  offset="1" style="stop-color:#DF3582"/>
</linearGradient>
<path class="st0" d="M1603.5,775.1c4.6,1.1-9.3-1.5-14.1-2.3c-185.3-29.9-443.6-59.8-725-82.7c-274.9-22.4-571.8-38.3-844.2-41.3
	c-5.7-0.1-22.2,1-20-4.2c8-18.5,0-644.5,0-644.5c4.6,0,12.2,0,16.8-0.1c423.4-1.5,1030.6,20.8,1574.5,125.2
	c3.5,0.7,11.2,1.3,11.6,4.9C1604.2,138.9,1599.2,774.1,1603.5,775.1z"/>
</svg>
