<?xml version="1.0" encoding="utf-8"?>
<svg version="1.1" xmlns="http://www.w3.org/2000/svg" xmlns:xlink="http://www.w3.org/1999/xlink" x="0px" y="0px"
	 viewBox="0 0 1417.3 762.2" style="enable-background:new 0 0 1417.3 762.2;" xml:space="preserve">
<linearGradient id="gfp24_section_background_blue" gradientUnits="userSpaceOnUse" x1="847.1028" y1="-5279.4917" x2="847.1028" y2="-4495.978" gradientTransform="matrix(-1.2253 -8.958083e-02 6.411244e-02 -0.877 2060.6328 -3838.1167)">
	<stop  offset="0" style="stop-color:#27397A"/>
	<stop  offset="1" style="stop-color:#1AA2DA"/>
</linearGradient>
<path style="fill:url(#gfp24_section_background_blue);" d="M1509.3,776c4.6,1.1-9.3-1.5-14.1-2.3c-185.3-29.9-443.6-59.8-725-82.7
	C495.3,668.6,198.4,652.7-74,649.7c-5.7-0.1-22.2,1-20-4.2C-86,627-94,1-94,1c4.6,0,12.2,0,16.8-0.1
	C346.2-0.6,953.4,21.7,1497.4,126.1c3.5,0.7,11.2,1.3,11.6,4.9C1510,139.8,1505,775,1509.3,776z"/>
</svg>
